<?xml version="1.0" encoding="UTF-8"?>
<svg id="Calque_1" data-js-nom="panier" xmlns="http://www.w3.org/2000/svg" viewBox="0 0 88.96 75.73">
  <defs>
  </defs>
  <g id="Regular-S">
    <path d="m24.27,43.36h51.81c5.81,0,8.89-3.66,9.77-9.42l2.98-19.92c.1-.49.15-1.12.15-1.46,0-2-1.51-3.37-3.81-3.37H21.24v6.59h60.25l-2.49,17.33c-.34,2.2-1.56,3.71-3.66,3.71H24.22l.05,6.54Zm7.23,13.67h44.24c1.71,0,3.17-1.42,3.17-3.27s-1.46-3.32-3.17-3.32h-43.6c-2,0-3.32-1.51-3.61-3.66L22.46,5.08c-.49-3.42-1.66-5.08-6.1-5.08H3.22C1.51,0,0,1.46,0,3.27s1.51,3.27,3.22,3.27h12.45l5.96,41.06c.88,5.76,3.95,9.42,9.86,9.42Zm38.62,18.7c3.52,0,6.35-2.78,6.35-6.35s-2.83-6.35-6.35-6.35-6.4,2.83-6.4,6.35,2.83,6.35,6.4,6.35Zm-36.23,0c3.56,0,6.35-2.78,6.35-6.35s-2.78-6.35-6.35-6.35-6.35,2.83-6.35,6.35,2.83,6.35,6.35,6.35Z"/>
  </g>
</svg>